{"accessors" : [{"bufferView" : 0, "byteOffset" : 0, "componentType" : 5123, "count" : 64467, "type" : "SCALAR", "max" : [64466], "min" : [0]}, {"bufferView" : 1, "byteOffset" : 0, "componentType" : 5126, "count" : 64467, "type" : "VEC3", "max" : [85.3712387084961, 183.23941040039062, 15.165611267089844], "min" : [-85.68213653564453, -0.7261339426040649, -12.254155158996582], "name" : "POSITION"}, {"bufferView" : 1, "byteOffset" : 12, "componentType" : 5126, "count" : 64467, "type" : "VEC3", "max" : [1.0000033378601074, 0.9999995231628418, 1.0000030994415283], "min" : [-0.9999077916145325, -0.9999949932098389, -1.0000004768371582], "name" : "NORMAL"}, {"bufferView" : 1, "byteOffset" : 24, "componentType" : 5126, "count" : 64467, "type" : "VEC2", "max" : [0.9994999766349792, 0.9994999766349792], "min" : [0.0005000000237487257, 0.000599980354309082], "name" : "TEXCOORD_0"}], "asset" : {"generator" : "Aspose.3D 24.6.0", "version" : "2.0"}, "buffers" : [{"uri" : "data:application/octet-stream;base64,", "byteLength" : 2191888}], "bufferViews" : [{"buffer" : 0, "byteOffset" : 0, "byteLength" : 128936, "target" : 34963}, {"buffer" : 0, "byteOffset" : 128940, "byteLength" : 2062944, "byteStride" : 32, "target" : 34962}], "meshes" : [{"primitives" : [{"attributes" : {"POSITION" : 1, "NORMAL" : 2, "TEXCOORD_0" : 3}, "indices" : 0, "mode" : 4}], "name" : ""}], "nodes" : [{"mesh" : 0, "name" : "rp_claudia_rigged_002_geo"}, {"children" : [0], "matrix" : [1, 0, 0, 0, 0, 0.999999999999999, 4.3711388286737916E-08, 0, 0, -4.3711388286737916E-08, 0.999999999999999, 0, 0, 0, 0, 1], "name" : "rp_claudia_rigged_002"}], "scene" : 0, "scenes" : [{"nodes" : [1]}]}